# xmcd CD database file
#
# Track frame offsets:
#	150
#	21903
#	46365
#	59963
#	85328
#	104328
#	121795
#	143453
#	167333
#	191095
#	218768
#	233593
#
# Disc length: 3410 seconds
#
# Revision: 0
# Processed by: cddbd v1.5.1PL0 Copyright (c) Steve Scherf et al.
# Submitted via: CDex 1.40Release
#
DISCID=9f0d500c
DTITLE=沢田聖子 - セレクション
DYEAR=2003
DGENRE=JPop
TTITLE0=約束
TTITLE1=一緒に暮らそー！
TTITLE2=卒業
TTITLE3=Respect
TTITLE4=シオン
TTITLE5=二人の明日
TTITLE6=走ってください
TTITLE7=青春の光と影
TTITLE8=流れる季節の中で
TTITLE9=親愛なる人へ
TTITLE10=春
TTITLE11=祈り
EXTD=YEAR: 2003
EXTT0=
EXTT1=
EXTT2=
EXTT3=
EXTT4=
EXTT5=
EXTT6=
EXTT7=
EXTT8=
EXTT9=
EXTT10=
EXTT11=
PLAYORDER=
